<svg xmlns="http://www.w3.org/2000/svg" width="85.714" height="30" viewBox="0, 0, 85.714, 30"><path d="M2.435.318l80.967.145c1.131 0 2.142-.168 2.142 2.257l-.099 26.663H.392V2.621C.392 1.425.507.318 2.435.318z" fill="#AAB2AB"/><path d="M84.11 0H1.605C.72 0 0 .72 0 1.605v28.033c0 .2.162.362.363.362h84.989c.2 0 .362-.162.362-.362V1.605C85.714.72 84.994 0 84.11 0zM1.605.725H84.11a.88.88 0 0 1 .879.88v19.439H26.021c-2.162 3.907-6.326 6.561-11.105 6.561-4.781 0-8.944-2.651-11.104-6.561H.725V1.605c0-.485.395-.88.88-.88z"/><path d="M24.659 13.961c.004 5.378-4.354 9.74-9.733 9.744-5.379.003-9.742-4.355-9.745-9.733v-.011c-.004-5.379 4.355-9.741 9.733-9.744 5.379-.003 9.742 4.354 9.745 9.732v.012z" fill="#FFF"/><path d="M22.838 6.029c2.159 2.159 3.239 4.804 3.239 7.932s-1.061 5.744-3.184 7.848c-2.253 2.216-4.915 3.324-7.987 3.324-3.035 0-5.651-1.099-7.847-3.296-2.198-2.197-3.296-4.822-3.296-7.876 0-3.054 1.098-5.698 3.296-7.932 2.14-2.161 4.757-3.24 7.847-3.24 3.128 0 5.771 1.079 7.932 3.24zM8.512 7.481c-1.825 1.844-2.738 4.004-2.738 6.482 0 2.478.904 4.619 2.71 6.426 1.808 1.807 3.959 2.71 6.455 2.71s4.666-.912 6.511-2.738c1.751-1.695 2.626-3.827 2.626-6.398 0-2.551-.89-4.717-2.669-6.496-1.779-1.778-3.935-2.668-6.468-2.668s-4.676.894-6.427 2.682zm4.805 5.393c-.279-.609-.696-.913-1.253-.913-.985 0-1.477.663-1.477 1.988 0 1.326.492 1.988 1.477 1.988.65 0 1.114-.323 1.393-.969l1.365.727c-.651 1.155-1.627 1.734-2.928 1.734-1.004 0-1.808-.308-2.412-.923-.604-.616-.906-1.464-.906-2.545 0-1.063.312-1.907.934-2.532.623-.624 1.399-.936 2.328-.936 1.376 0 2.361.541 2.957 1.624l-1.478.757zm6.422 0c-.279-.609-.689-.913-1.228-.913-1.005 0-1.507.663-1.507 1.988 0 1.326.502 1.988 1.507 1.988.651 0 1.107-.323 1.367-.969l1.396.727c-.65 1.155-1.625 1.734-2.924 1.734-1.002 0-1.804-.308-2.408-.923-.602-.616-.904-1.464-.904-2.545 0-1.063.306-1.907.919-2.532.612-.624 1.391-.936 2.338-.936 1.373 0 2.357.541 2.95 1.624l-1.506.757z"/><path d="M34.352 23.391c.226 0 .432.02.618.06.186.039.344.104.478.195.132.09.235.211.308.361.073.15.11.335.11.556 0 .239-.055.437-.163.595-.109.16-.269.29-.481.391.292.084.51.231.655.441.144.21.216.463.216.759 0 .239-.047.445-.139.62a1.219 1.219 0 0 1-.375.427 1.642 1.642 0 0 1-.538.245c-.202.054-.409.08-.621.08h-2.298v-4.73h2.23zm-.132 1.913a.75.75 0 0 0 .457-.132c.12-.088.179-.231.179-.429a.552.552 0 0 0-.059-.271.448.448 0 0 0-.16-.166.678.678 0 0 0-.229-.083 1.567 1.567 0 0 0-.269-.022h-.974v1.103h1.055zm.06 2.007c.102 0 .199-.009.292-.029a.753.753 0 0 0 .246-.1.492.492 0 0 0 .169-.189.635.635 0 0 0 .063-.304c0-.243-.068-.416-.206-.52-.137-.103-.318-.155-.544-.155h-1.135v1.297h1.115zm1.997-3.92h1.166l1.108 1.868 1.101-1.868h1.16l-1.756 2.915v1.815h-1.043v-1.842l-1.736-2.888zm15.521 0l1.976 3.173h.011v-3.173h.976v4.73h-1.04l-1.969-3.167h-.013v3.167h-.976v-4.73h1.035zm6.913 1.26c-.062-.1-.14-.187-.233-.262a1.036 1.036 0 0 0-.314-.175 1.059 1.059 0 0 0-.368-.063c-.234 0-.433.045-.597.136-.163.09-.296.211-.397.363a1.588 1.588 0 0 0-.222.52 2.552 2.552 0 0 0 0 1.182c.046.188.12.357.222.507.101.15.234.27.397.361.164.091.363.136.597.136.318 0 .567-.097.746-.292.178-.194.288-.451.327-.769h1.008a2.402 2.402 0 0 1-.206.802c-.11.239-.256.442-.437.611a1.867 1.867 0 0 1-.636.385 2.319 2.319 0 0 1-.802.133 2.43 2.43 0 0 1-.978-.189 2.076 2.076 0 0 1-.732-.52 2.291 2.291 0 0 1-.459-.779 2.865 2.865 0 0 1-.159-.965c0-.353.053-.681.159-.984.106-.303.259-.567.459-.792.198-.225.443-.402.732-.53.29-.129.616-.192.978-.192.261 0 .507.037.739.113.232.074.44.184.623.328.183.144.335.322.454.534.119.212.194.455.225.729H58.83a.851.851 0 0 0-.119-.328zm11.543-1.26l1.976 3.173h.011v-3.173h.976v4.73h-1.04l-1.969-3.167h-.013v3.167h-.976v-4.73h1.035zm5.918 0c.305 0 .589.049.852.146.264.097.491.243.684.437.192.194.342.437.45.728.109.292.163.635.163 1.028 0 .344-.044.662-.132.953a2.11 2.11 0 0 1-.401.755c-.18.212-.403.379-.671.501a2.273 2.273 0 0 1-.945.182h-2.043v-4.73h2.043zm-.073 3.854c.15 0 .296-.024.437-.073a.946.946 0 0 0 .378-.242c.11-.112.199-.258.266-.439.065-.181.099-.402.099-.662 0-.239-.023-.454-.07-.646a1.27 1.27 0 0 0-.228-.492 1.012 1.012 0 0 0-.421-.315 1.68 1.68 0 0 0-.646-.109h-.743v2.978h.928zM62.715 10.701a7.113 7.113 0 0 1-7.109 7.119 7.114 7.114 0 0 1-7.119-7.109v-.01a7.114 7.114 0 0 1 14.228-.011v.011z" fill="#FFF"/><path d="M55.59 2.419c2.323 0 4.285.8 5.889 2.401 1.603 1.602 2.405 3.562 2.405 5.881 0 2.318-.788 4.258-2.364 5.818-1.673 1.643-3.65 2.464-5.93 2.464-2.252 0-4.195-.815-5.826-2.444-1.631-1.628-2.446-3.574-2.446-5.838 0-2.264.815-4.225 2.446-5.881 1.59-1.601 3.532-2.401 5.826-2.401zm-6.409 6.057a6.627 6.627 0 0 0-.371 2.225c0 1.836.671 3.423 2.012 4.762 1.341 1.338 2.937 2.008 4.789 2.008 1.852 0 3.462-.676 4.831-2.029a6.38 6.38 0 0 0 1.132-1.449l-3.123-1.39c-.212 1.051-1.148 1.76-2.28 1.843v1.277h-.951v-1.277c-.929-.01-1.827-.39-2.514-.991l1.141-1.151c.549.518 1.099.749 1.849.749.486 0 1.024-.19 1.024-.823a.616.616 0 0 0-.223-.497l-.79-.351-.983-.439-1.312-.583-4.231-1.884zm6.43-4.567c-1.88 0-3.469.663-4.769 1.988-.353.357-.661.73-.922 1.119l3.166 1.41c.286-.879 1.121-1.412 2.134-1.471V5.678h.951v1.277a3.563 3.563 0 0 1 2.081.76l-1.088 1.118c-.401-.285-.908-.485-1.415-.485-.412 0-.994.126-.994.644 0 .078.027.148.075.21l1.059.471.717.319c.458.205.896.399 1.33.592l4.244 1.89c.14-.556.211-1.147.211-1.773 0-1.891-.664-3.493-1.99-4.804-1.314-1.325-2.91-1.988-4.79-1.988z"/><path d="M81.906 10.701a7.56 7.56 0 0 1-15.121.01v-.01a7.56 7.56 0 0 1 15.121-.012v.012z" fill="#FFF"/><path d="M74.227 2.419c-2.294 0-4.237.8-5.826 2.401-1.631 1.656-2.446 3.616-2.446 5.881 0 2.264.815 4.21 2.446 5.838 1.63 1.629 3.573 2.444 5.826 2.444 2.281 0 4.257-.822 5.93-2.464 1.575-1.56 2.364-3.5 2.364-5.818 0-2.32-.802-4.28-2.406-5.881-1.603-1.601-3.566-2.401-5.888-2.401zm.02 1.49c1.88 0 3.477.663 4.79 1.988 1.327 1.311 1.99 2.912 1.99 4.804 0 1.905-.649 3.485-1.948 4.741-1.369 1.353-2.979 2.028-4.832 2.028-1.852 0-3.448-.669-4.789-2.008-1.341-1.338-2.011-2.926-2.011-4.761 0-1.837.677-3.438 2.033-4.804 1.299-1.325 2.887-1.988 4.767-1.988z"/><path d="M77.367 8.738h-6.021v1.426h6.021V8.738zm0 2.662h-6.021v1.425h6.021V11.4z"/><path d="M44.645 10.869a7.67 7.67 0 0 1-7.671 7.67 7.67 7.67 0 0 1 0-15.34 7.67 7.67 0 0 1 7.671 7.67z" fill="#FFF"/><path d="M39.194 8.65a.535.535 0 0 0-.535-.535h-3.388a.535.535 0 0 0-.535.535v3.388h.945v4.011h2.568v-4.011h.945V8.65zm-1.07-2.14a1.16 1.16 0 1 1-2.318 0 1.16 1.16 0 0 1 2.318 0z"/><path d="M36.955 2.419c-2.294 0-4.237.8-5.826 2.401-1.631 1.656-2.446 3.617-2.446 5.88 0 2.264.815 4.211 2.446 5.839 1.631 1.629 3.573 2.443 5.826 2.443 2.28 0 4.257-.821 5.93-2.464 1.576-1.559 2.363-3.499 2.363-5.818 0-2.319-.801-4.279-2.405-5.88-1.603-1.601-3.566-2.401-5.888-2.401zm.021 1.49c1.88 0 3.476.663 4.789 1.988 1.327 1.311 1.991 2.912 1.991 4.803 0 1.905-.65 3.486-1.95 4.742-1.368 1.353-2.978 2.029-4.83 2.029-1.853 0-3.449-.67-4.79-2.008-1.341-1.339-2.011-2.927-2.011-4.763 0-1.836.677-3.437 2.032-4.803 1.3-1.325 2.889-1.988 4.769-1.988z"/></svg>