<svg xmlns="http://www.w3.org/2000/svg" width="247.605" height="35" viewBox="0, 0, 247.605, 35"><path d="M6.604 21.626c.405-.55.842-1.104 1.304-1.66a2.428 2.428 0 0 1-.278-1.118c-2.831-.617-5.462-.508-7.63-.137v4.74h5.341c.397-.609.815-1.218 1.263-1.825m5.877-2.832c.443.211.88.436 1.312.678a2.42 2.42 0 0 1 3.559.252 22.775 22.775 0 0 1 3.713-.816 20.771 20.771 0 0 1 1.815-.149 2.44 2.44 0 0 1 .57-.916 28.25 28.25 0 0 0-2.337-4.302 2.42 2.42 0 0 1-2.428-.411 31.34 31.34 0 0 0-6.458 4.629c.157.313.247.664.254 1.035m.547 2.442c0-.104.009-.207.022-.309a21.652 21.652 0 0 0-1.097-.575 2.421 2.421 0 0 1-2.844.722c-.406.494-.805.998-1.192 1.521-.209.285-.411.57-.609.855H9.62a34.216 34.216 0 0 1 3.42-1.982 2.556 2.556 0 0 1-.012-.232m10.775 8.115V23.45h1.469a32.915 32.915 0 0 0-.374-1.486 2.424 2.424 0 0 1-2.002-1.571c-.538.022-1.078.063-1.62.133a20.784 20.784 0 0 0-3.396.746 2.425 2.425 0 0 1-.199.931c2.215 1.897 4.258 4.283 6.122 7.148m-7.239-5.957a2.419 2.419 0 0 1-2.819-.437c-.63.32-1.245.66-1.844 1.016V35h11.902v-2.511c-2.151-3.786-4.568-6.823-7.239-9.095M18.119 7.47c.477.451.963.944 1.45 1.477a2.418 2.418 0 0 1 2.623.88c.524-.196 1.062-.38 1.61-.557V0H11.901v2.944a30.04 30.04 0 0 1 6.218 4.526m9.159 13.284a2.43 2.43 0 0 1-.812.85c.166.598.32 1.213.461 1.846h6.825c-2.092-1.329-4.254-2.229-6.474-2.696M8.182 17.298a2.421 2.421 0 0 1 2.89-.661 33.56 33.56 0 0 1 6.805-4.849 2.408 2.408 0 0 1 .365-1.875c-.401-.429-.814-.85-1.244-1.257a28.374 28.374 0 0 0-5.097-3.827v6.721H0v5.492c2.337-.372 5.147-.443 8.182.256m15.621-5.749v-.632c-.38.128-.757.261-1.129.401-.007.429-.127.83-.329 1.176a30.589 30.589 0 0 1 2.538 4.651 2.425 2.425 0 0 1 2.677 1.995c2.812.582 5.534 1.803 8.144 3.655V11.549H23.803" fill="#00B092"/><path d="M57.162 11.505l-3.054 7.81h6.142l-3.088-7.81zm-2.13-7.314h4.579l10.934 25.135h-6.248l-2.165-5.325h-9.763l-2.095 5.325h-6.105L55.032 4.191m18.247 0h5.538v20.023h10.259v5.112H73.279V4.191m18.247 7.881h5.324v17.254h-5.324V12.072zm-.427-5.431c0-.852.302-1.58.906-2.183a2.97 2.97 0 0 1 2.183-.905c.852 0 1.58.302 2.183.905.604.603.905 1.331.905 2.183 0 .852-.301 1.58-.905 2.183a2.972 2.972 0 0 1-2.183.905c-.852 0-1.58-.301-2.183-.905a2.973 2.973 0 0 1-.906-2.183m10.473-2.45h17.075v5.112H107.11v4.686h10.899v5.112H107.11v5.113h12.177v5.112h-17.715V4.191m22.152 0h8.378l5.786 16.401h.071l5.822-16.401h8.343v25.135h-5.538V10.049h-.071l-6.603 19.277h-4.225l-6.355-19.277h-.07v19.277h-5.539V4.191m48.963 2.632c-2.925 0-5.227.935-6.906 2.807-1.68 1.871-2.52 4.434-2.52 7.687 0 3.328.792 5.912 2.376 7.751 1.584 1.84 3.849 2.76 6.794 2.76 1.956 0 3.753-.251 5.39-.75v1.435c-1.541.542-3.466.813-5.773.813-3.275 0-5.853-1.058-7.735-3.174-1.882-2.116-2.823-5.072-2.823-8.867 0-2.371.45-4.461 1.348-6.268.898-1.808 2.19-3.203 3.876-4.186 1.684-.984 3.644-1.476 5.877-1.476 2.275 0 4.311.426 6.108 1.276l-.654 1.467a11.834 11.834 0 0 0-5.358-1.275zm20.461 22.184l-.399-2.743h-.128c-.871 1.117-1.767 1.906-2.686 2.369-.92.462-2.007.694-3.262.694-1.701 0-3.025-.437-3.971-1.309-.946-.871-1.42-2.078-1.42-3.62 0-1.69.705-3.004 2.114-3.939 1.409-.936 3.447-1.43 6.116-1.483l3.301-.096v-1.149c0-1.647-.335-2.891-1.004-3.731-.671-.84-1.749-1.26-3.238-1.26-1.606 0-3.27.446-4.992 1.34l-.59-1.372c1.903-.893 3.785-1.339 5.646-1.339 1.902 0 3.325.494 4.266 1.483.941.988 1.411 2.53 1.411 4.624v11.531h-1.164zm-6.379-1.116c1.85 0 3.309-.529 4.378-1.587 1.068-1.058 1.602-2.528 1.602-4.41v-1.706l-3.03.128c-2.434.116-4.17.497-5.207 1.139-1.037.644-1.555 1.646-1.555 3.007 0 1.084.333 1.927.997 2.528.664.6 1.603.901 2.815.901zm19.983-16.555c.733 0 1.52.075 2.36.223l-.303 1.516a9.234 9.234 0 0 0-2.249-.271c-1.478 0-2.69.627-3.636 1.882-.947 1.255-1.42 2.838-1.42 4.752v9.569h-1.579V11.671h1.34l.159 3.126h.112c.713-1.276 1.473-2.171 2.281-2.687s1.787-.774 2.935-.774zm12.232 0c1.255 0 2.339.229 3.254.686.914.457 1.733 1.239 2.455 2.344h.096a83.857 83.857 0 0 1-.096-3.939V4.191h1.564v24.816h-1.037l-.399-2.647h-.128c-1.318 1.978-3.211 2.967-5.677 2.967-2.393 0-4.222-.745-5.487-2.233-1.265-1.489-1.897-3.658-1.897-6.508 0-2.998.627-5.289 1.881-6.874 1.255-1.584 3.079-2.376 5.471-2.376zm0 1.436c-1.892 0-3.315.664-4.266 1.993-.952 1.329-1.427 3.259-1.427 5.789 0 4.912 1.909 7.368 5.726 7.368 1.955 0 3.391-.568 4.305-1.706.915-1.137 1.371-3.014 1.371-5.63v-.271c0-2.679-.449-4.606-1.347-5.781-.898-1.175-2.353-1.762-4.362-1.762zm23.843 11.722c0 1.552-.59 2.746-1.77 3.58-1.18.835-2.855 1.253-5.024 1.253-2.318 0-4.157-.357-5.518-1.069v-1.707a12.178 12.178 0 0 0 5.518 1.308c1.712 0 3.012-.284 3.899-.853.888-.569 1.332-1.326 1.332-2.272 0-.873-.354-1.606-1.061-2.202-.707-.595-1.869-1.179-3.485-1.754-1.732-.627-2.95-1.167-3.652-1.619-.701-.451-1.231-.962-1.586-1.531-.357-.568-.535-1.262-.535-2.081 0-1.297.545-2.323 1.635-3.078 1.089-.755 2.613-1.132 4.569-1.132 1.871 0 3.647.35 5.326 1.052l-.59 1.435c-1.701-.701-3.28-1.052-4.736-1.052-1.415 0-2.536.234-3.366.701-.829.468-1.243 1.117-1.243 1.946 0 .904.321 1.626.964 2.169.644.543 1.901 1.148 3.772 1.818 1.563.564 2.7 1.071 3.413 1.524.712.452 1.246.964 1.603 1.539.357.573.535 1.249.535 2.025z" fill="#706D6E"/></svg>