<svg version="1" xmlns="http://www.w3.org/2000/svg" width="1162.667" height="1162.667" viewBox="0 0 872.000000 872.000000"><path d="M290.8 9.7c-.3.7-.2 62.3.1 69.5 0 1.6.5 2.8 1 2.8 2.1 0 43.2 24.5 43.9 26.2.2.4.8.8 1.3.8.8 0 22.2 14.1 26.9 17.7 7.3 5.7 15 11.3 15.4 11.3.2 0 1.5.9 2.8 2 1.2 1.1 5.9 4.8 10.3 8.3 8.5 6.6 10 7.9 17.4 14.1 2.5 2.2 5.4 4.7 6.5 5.5 6.6 5.6 19.6 17.2 29.9 27.1 8.5 8.1 10.9 10.5 25.6 25.9l6.1 6.4 4.7-1c8.6-2 23.7-1 31.8 2.1 8.2 3.2 15.9 8.2 22.4 14.8l5.4 5.4 6.6-2.3c3.6-1.2 7.3-2.6 8.1-2.9.8-.4 2-.8 2.5-1 1.5-.3 10.7-3.4 12.5-4.1.8-.4 1.8-.7 2.3-.8.4-.2.8-.3 1-.4.1-.2 1.3-.5 2.6-.7 1.4-.2 2.7-.7 3-.9.6-.6.8-223.4.3-225.3C580.9 9.3 550.9 9 436 9c-79.7 0-145 .3-145.2.7zm.1 119.1c-.1.9-.2 37.7-.2 81.7l-.2 80-14.5.2c-8 .1-73.3.2-145.2.2L0 291v134l2.7-.5c1.6-.3 4.8-.8 7.3-1.1 2.5-.2 6.1-.7 8-1.1 1.9-.3 5.3-.7 7.5-.9 2.2-.2 6-.6 8.5-.8 22.2-2.7 72.9-2.7 99.5-.2 10.6 1.1 16.1 1.7 17.5 2.1.8.2 3.5.7 6 1 6.6.7 12.2 1.5 14.5 1.9 1.1.2 3.8.7 6 1.1 2.2.4 5.4 1.1 7 1.5 1.7.5 4.6 1.1 6.5 1.3 1.9.3 4.7.8 6.1 1.2 2.2.5 3.2 0 6-3 3-3.2 15.8-12.5 17.2-12.5.3 0 1.8-.5 3.4-1.2 12.7-5.2 29.1-5.5 41.2-.9 5.1 1.9 5.1 1.9 7.8-.2 1.6-1.2 3.3-2.6 3.9-3.2 2.8-2.6 15.3-13.6 18.4-16.1 1.9-1.6 3.7-3.1 4-3.4.9-1 12.6-10.5 16-13 1.9-1.4 4.8-3.7 6.4-5.1 1.7-1.4 7.6-5.9 13.1-10 5.5-4 10.5-7.7 11-8.2.6-.5 5.5-3.9 11-7.7 5.5-3.8 10.6-7.4 11.3-8 .6-.6 1.2-.8 1.2-.5 0 .3 1-.3 2.2-1.5 1.2-1.1 2.6-2 3.2-2 .5 0 1.7-.7 2.7-1.6 1-.9 6.4-4.5 12.1-8 5.7-3.5 10.8-6.7 11.4-7.2.6-.5 2-1.3 3.2-1.6 1.2-.4 2.2-1.2 2.2-1.7s.4-.9.8-.9c.5 0 7.3-3.7 15.2-8.3 13.2-7.5 16.7-10.6 14.1-12.2-1.1-.6-.2-22 .9-22 .1 0 .3-1.1.6-2.5.2-1.4 2-5.8 4-9.8 3.5-7.2 3.5-7.4 1.7-9.5-5.7-6.8-37.2-37.3-47.9-46.4-1.2-1-4.6-3.9-7.5-6.4-3-2.6-7.9-6.6-10.9-9-3-2.3-6.1-4.8-7-5.5-2.6-2.2-10.4-8.4-11.5-9.2-.6-.4-3.7-2.7-7-5.1-3.3-2.5-7.7-5.7-9.7-7.3-2-1.5-4.2-2.8-4.8-2.8-.6 0-1.3-.7-1.6-1.5-.4-.8-1-1.5-1.5-1.5-.4 0-5.1-2.9-10.3-6.5-5.2-3.6-9.9-6.5-10.5-6.5-.6 0-1.1-.5-1.1-1 0-.6-.7-1-1.5-1s-1.5-.5-1.5-1c0-.6-.5-1-1.1-1-.6 0-2.3-.8-3.7-1.9-1.5-1-5.1-3.3-7.9-5-4.5-2.6-5.3-2.8-5.4-1.3zM576 276.9c0 .4-2.1 1.3-4.7 2-2.7.8-5.5 1.8-6.3 2.2-2.2 1.1-5.2 2.1-7.5 2.6-3 .6-3.8 1.8-4.2 7-.5 4.9-2.8 12.7-5.7 19.6-1.6 3.7-1.6 3.9.9 8 1.4 2.3 3.1 5.1 3.8 6.2.7 1.1 1.5 2.2 1.8 2.5.6.5 3.7 5.5 13.7 22.3 2.1 3.5 5.5 9.5 8.6 15.2.6 1.1 1.3 2.2 1.6 2.5.7.7 23.5 46.1 23.5 46.9.1.3 1.4 3.4 3 6.8l3 6.3 7.5.1c4.1 0 8.2.2 9 .4.8.2 2.4.6 3.5.9 1.1.3 3.6.9 5.5 1.4 10.2 2.5 25.1 14.1 31.9 24.9 3.4 5.4 8.3 18.1 7.5 19.4-.6 1 2.4 2.6 5.9 3.4 5.5 1.1 8.2 1.7 16.2 3.6 2.2.6 5.4 1.3 7 1.6 1.7.3 3.5.9 4 1.3.6.4 5.1 1.8 10 3.1 5 1.2 9.3 2.8 9.7 3.3.4.6.8.8.8.4s1.2-.3 2.8.3c1.5.6 7.4 2.8 13.2 4.8 5.8 2.1 12.1 4.5 14 5.4 1.9.9 6.4 2.8 10 4.2 17.7 7.3 45.4 21.3 63.3 32.2 4.8 2.9 9 5.3 9.3 5.3.3 0 1 .5 1.7 1 .7.6 4.6 3.2 8.7 5.8 4.2 2.6 8.2 5.3 9 6 .8.7 4.2 3 7.5 5.1l6 3.8.3-136.5c.1-75.1.1-136.7-.1-136.9-.2-.2-65.6-.4-145.3-.6l-144.9-.2-.1-7c-.1-6.9-.1-7-2.7-7.1-1.5-.1-2.7.2-2.7.5zm-124.5 55.2c-6.4 3.4-11.5 6.3-19.8 11.3-4.3 2.5-8.3 4.6-8.8 4.6s-.9.4-.9.9-1.4 1.4-3.1 2.1c-1.7.7-3.6 1.8-4.2 2.4-.7.6-4.8 3.4-9.2 6.1-4.4 2.7-8.4 5.3-9 5.7-.5.5-6.5 4.6-13.2 9.2-12.5 8.6-25 17.7-31.3 22.8-1.9 1.6-4 3.2-4.5 3.6-1.8 1.3-16 12.6-16.5 13.1-.3.4-3.2 2.8-6.5 5.6-6 5-12.8 11-17.2 15.3-1.2 1.3-2.3 2-2.3 1.6 0-.8-6 5.9-6 6.7 0 .4.9 2.6 1.9 5 2 4.6 3 8.9 3.5 15 .3 4.5 1.2 5.9 3.6 5.9 1 0 2 .3 2.2.7.2.5 6.2 3.8 13.5 7.5l13.1 6.7 3.9-2.9c5.6-4.3 5.6-4.4 8.8-6.1 3.9-2.1 15.1-5.8 19.1-6.2 1.7-.2 3.6-.7 4.3-1.1.6-.4 1.1-.4 1.1.1 0 .4 3.1.8 6.8.9 6.7.1 14.7 1.7 18.7 3.8 1.1.5 2.5 1.1 3.1 1.2 2.4.4 12.1 7.3 16.5 11.7 3 3 5.2 4.4 6.5 4.2 1-.2 1.9-.4 1.9-.5 0-.1.9-.3 2-.5 2.6-.5 5.9-1.3 6.3-1.5.1-.2.7-.4 1.2-.5.6-.1 1.1-.3 1.3-.4.1-.2 1.3-.4 2.7-.7 1.4-.2 3.2-.7 4-1.1.8-.3 2.2-.7 3-.9.9-.2 4.5-1 8-1.9 3.6-.9 7.4-1.8 8.5-2 1.1-.3 3.8-.9 6-1.4 2.2-.5 5.4-1.2 7-1.5 1.7-.2 4.1-.7 5.5-1.1 3.9-.8 10-1.9 17.5-3 2.3-.3 5-.7 6-.9 4.4-.8 11.6-1.7 17.1-2.2 8.5-.8 11.9-1.2 11.9-1.3 0-.1 4.7-.4 10.4-.6 11-.5 14.1-1 14.1-2.6 0-1.2 4-10.2 4.9-10.9.3-.3 1.7-2.1 3-4 1.4-1.9 3-3.8 3.7-4.3 1.4-.8.6-2.9-8.2-21.2-2.6-5.5-4.8-10.2-4.9-10.5 0-.3-.6-1.4-1.2-2.5s-3.6-6.9-6.8-12.9c-3.1-6-6.5-12.2-7.6-13.8-1.1-1.5-1.7-2.8-1.3-2.8.4 0 0-.8-.8-1.8-.8-.9-2.6-3.7-3.9-6.2-1.3-2.5-6.3-10.8-11.1-18.4-4.8-7.7-8.9-14.4-9.1-14.9-.3-.9-2.6-.5-12.2 1.8-3.9 1-16.4.7-22.1-.5-7-1.5-14.9-4.8-21-9-2.5-1.6-4.8-3-5.2-3-.4 0-2.5 1-4.7 2.1zM64.7 458.6c-.1.1-4.5.5-9.7.7-5.2.3-9.7.6-10 .7-.3.1-.9.2-1.5.1-.5-.2-4.5.2-9 .8-16.6 2.1-19.1 2.4-22 2.7-1.6.1-3 .3-3 .4 0 .2-6.4 1.2-8.2 1.3-1 0-1.3 12.3-1.3 57.9V581h130.6l10.9-16.3c6.1-8.9 12-17.3 13.2-18.7 1.3-1.4 2.3-2.8 2.3-3.1 0-.4 1.9-3.1 4.3-6.1 2.3-3 5.1-6.7 6.2-8.2 3.9-5.3 10.2-13.4 11.6-14.9.8-.8 2.5-3 3.9-4.8 1.4-1.8 4.2-5.3 6.3-7.8 2.3-2.9 3.5-5.2 3.1-6.1-2.8-6.4-5.2-15.3-5.8-22-.5-4.4-.6-4.6-2.3-4.6-1-.1-3.1-.4-4.8-.8-1.6-.3-4.1-.8-5.5-1.1-1.4-.2-3.6-.7-5-1-5-1-9.6-1.7-13-2.1-5.6-.5-12.3-1.4-15-1.9-3.5-.6-13.2-1.6-21.5-2.1-7.4-.5-54.4-1.2-54.8-.8zm221.5 52.8c-4.6 4.6-21.2 14.9-21.2 13.1 0-.3-.9-.1-1.9.5-5.9 3.1-25.3 3.2-34.7.2l-6.2-1.9-3.8 5c-2.1 2.7-4.3 5.5-4.9 6.1-.6.6-5.9 7.4-11.7 15.1-5.9 7.7-11.3 14.8-12.2 15.7-.9 1-1.3 1.8-1 1.8.3 0-.1.7-.8 1.5-3 3.3-3.8 4.5-3.8 5.5 0 .5-.4 1-.8 1-1 0-4.5 6-3.5 6 .4.1 13.1.1 28.1 0h27.3l13.2-8.2c7.3-4.5 13.4-8.5 13.7-8.9.3-.3 1-.8 1.5-1 .6-.2 9.2-5.1 19.2-10.8 10-5.6 18.5-10.2 18.9-10.1.4.1 1-.2 1.3-.7.3-.4 4-2.5 8.1-4.6l7.5-3.8v-6.4c0-3.6-.5-6.9-1-7.4-1.4-1.2-21.5-11.7-24-12.4-1.5-.4-3.3.8-7.3 4.7zm269.5-4.8c-.1.1-4.7.5-10.2.8-5.5.4-11.1.8-12.5 1.1-1.4.2-5.6.7-9.4 1-3.8.3-7.2.7-7.5.9-.3.2-3.1.7-6.1 1-3 .4-6.8.9-8.5 1.2-1.6.3-4.1.7-5.5.9-1.4.2-2.5.5-2.5.6 0 .1-.9.3-2 .5-1.1.1-3.1.5-4.5.8-1.4.3-3.8.8-5.5 1.1-6.4 1.3-8.3 1.7-22.9 5.6-8.3 2.2-15.8 4.1-16.6 4.4-.8.2-1.6.4-1.7.5-.3.3-1.8.7-3.1.9-.4 0-.8 1.8-.9 3.8 0 2.1-.3 4.9-.6 6.3-.3 1.4-.8 3.6-1.1 5-.3 1.4-1.1 3.5-1.8 4.8-1.1 2.1-.7 2.7 4.8 8 3.3 3.1 8.2 7.7 10.9 10 12.1 10.6 38.3 37.2 51 51.7 3.3 3.8 6.9 7.9 8 9.1 1.2 1.2 3.5 4 5.3 6.1 7.2 8.7 14.9 18.1 17.4 21.3 1.5 1.9 5.3 6.9 8.5 11 5.3 6.8 19.6 26.2 23.3 31.6.8 1.2 3.2 4.8 5.4 8 2.1 3.3 4.1 6.1 4.5 6.4.3.3 1.5 2.2 2.6 4.2 1.1 2.1 2.3 3.8 2.7 3.8.3 0 .9.9 1.3 1.9.3 1.1 1.1 2.1 1.8 2.4.9.3 1.2-15.1 1.1-69.7 0-38.5.1-70.6.3-71.3.4-.9 5.2-1.2 17.5-1.2 9.4-.1 17.3-.3 17.5-.4.2-.2-.4-3.3-1.2-6.8-.9-3.5-1.8-7.3-2-8.4-2.8-12.3-5.3-19.8-6.8-20.7-1-.5-1.7-.6-1.7-.2 0 .3-.7.1-1.5-.6s-1.5-1-1.5-.7c0 .3-2.3-.1-5.1-.9-15.3-4.6-28.9-16.7-36.3-32.5-1.4-2.9-3.7-4.5-4.9-3.3zm109 11.3c-2 3.3-9.7 12.6-9.7 11.7 0-.4-1.1.5-2.5 2s-2.5 2.4-2.5 2c0-.4-.7 0-1.6.8-1.7 1.7-1.5 5.2.6 11.6.6 1.9 1.3 4.4 1.5 5.5.7 3.1 4.4 18.7 5.2 21.5.4 1.4.8 3.6.9 4.9.2 1.3.5 2.5.7 2.8.4.3 132.9.6 163 .3 2.5 0 2.7-.2 1.3-1.5-.8-.8-1.8-1.5-2.3-1.5-.5 0-3.2-1.6-6-3.5-2.9-1.9-5.7-3.5-6.2-3.5s-1.1-.3-1.3-.8c-.5-1.2-42.3-22.7-50.8-26.1-1.9-.8-5.3-2.2-7.5-3.2-5.2-2.3-28.4-11-30.7-11.4-1-.2-2.3-.7-2.8-1-1-.6-12.1-4-16-5-.8-.2-3.5-1-6-1.9-2.5-.8-6.5-1.8-9-2.2-2.5-.4-5.1-1.1-5.7-1.7-.7-.5-1.3-.7-1.3-.4 0 .3-2.2-.1-4.9-.8-4.7-1.2-4.8-1.2-6.4 1.4zm-335.2 54.6c-3.3 1.7-7.8 4.1-10 5.3-2.2 1.2-4.5 2.2-5.2 2.2-.7 0-1.3.4-1.3.8 0 .9-3.7 2.9-5.4 3-.5 0-1.2.4-1.5.9-.3.5-3.6 2.6-7.3 4.6-3.7 2.1-7 4.3-7.4 4.9-.9 1.4-1.2 266.5-.3 267.9.3.5 59.4.8 145.4.7l144.9-.3V832l-.1-30.5-4.1-6.9c-2.3-3.7-4.2-7.2-4.2-7.7s-.4-.9-.9-.9-1.3-1-1.7-2.2c-.4-1.3-1.5-3.4-2.4-4.8-2.9-4.3-5.4-8.5-5.5-9.1 0-.3-.8-1.7-1.7-3-1-1.3-3.9-5.8-6.5-9.9-2.6-4.1-5.1-7.7-5.5-7.8-.4-.2-.8-.8-.8-1.3 0-1-6.7-11.6-8.7-13.7-.6-.6-1.5-2.1-1.8-3.2-.3-1.1-1.1-2-1.6-2s-.9-.6-.9-1.4c0-.8-.4-1.6-.8-1.8-.4-.2-3.9-4.8-7.7-10.3-3.8-5.5-7.3-10.5-7.7-11-.9-1.1-5-6.4-8.8-11.5-1.4-1.8-3.1-3.9-3.7-4.6-.7-.7-1.3-1.7-1.3-2.2 0-.6-.4-1.2-.8-1.4-.4-.2-2.8-3-5.4-6.3-2.5-3.3-5.6-7.1-6.8-8.5-1.2-1.4-3.9-4.5-5.9-7-2-2.5-3.8-4.7-4.1-5-.3-.3-1.8-2.1-3.4-4-13.6-16.6-56.2-59.5-70.3-70.9-3.9-3.1-4.2-3.2-6.9-1.8-7.5 3.8-23.8 5.8-33.8 4.3-8.3-1.3-21.4-7.1-26.7-11.9-5.1-4.7-5-4.6-11.4-1.2z"/></svg>