<?xml version="1.0" encoding="utf-8"?>
<!-- Generator: Adobe Illustrator 15.0.0, SVG Export Plug-In . SVG Version: 6.00 Build 0)  -->
<!DOCTYPE svg PUBLIC "-//W3C//DTD SVG 1.1//EN" "http://www.w3.org/Graphics/SVG/1.1/DTD/svg11.dtd">
<svg version="1.1"
	 id="svg3436" xmlns:dc="http://purl.org/dc/elements/1.1/" xmlns:sodipodi="http://sodipodi.sourceforge.net/DTD/sodipodi-0.dtd" xmlns:svg="http://www.w3.org/2000/svg" xmlns:rdf="http://www.w3.org/1999/02/22-rdf-syntax-ns#" inkscape:version="0.91 r13725" xmlns:inkscape="http://www.inkscape.org/namespaces/inkscape" xmlns:cc="http://creativecommons.org/ns#" sodipodi:docname="aliem-logo-horizontal.svg"
	 xmlns="http://www.w3.org/2000/svg" xmlns:xlink="http://www.w3.org/1999/xlink" x="0px" y="0px" width="758.506px"
	 height="107.218px" viewBox="0 0 758.506 107.218" enable-background="new 0 0 758.506 107.218" xml:space="preserve">
<sodipodi:namedview  id="namedview3438" objecttolerance="10" inkscape:window-width="1920" borderopacity="1" bordercolor="#666666" gridtolerance="10" pagecolor="#ffffff" guidetolerance="10" inkscape:current-layer="g3446" fit-margin-top="0" inkscape:pageopacity="0" inkscape:window-height="1042" inkscape:pageshadow="2" showgrid="false" inkscape:zoom="1.4142136" inkscape:cx="385.96027" inkscape:window-y="38" inkscape:window-maximized="0" inkscape:cy="-9.5801189" inkscape:window-x="0" fit-margin-left="0" fit-margin-right="0" fit-margin-bottom="0">
	</sodipodi:namedview>
<path id="path3448" inkscape:connector-curvature="0" fill="#00B092" d="M20.229,66.25c1.243-1.685,2.581-3.385,3.997-5.086
	c-0.538-1.025-0.847-2.189-0.851-3.426C14.702,55.849,6.642,56.183,0,57.32v14.518h16.361C17.577,69.974,18.858,68.109,20.229,66.25
	"/>
<path id="path3450" inkscape:connector-curvature="0" fill="#00B092" d="M38.235,57.574c1.355,0.644,2.695,1.335,4.017,2.076
	c1.331-1.256,3.12-2.029,5.094-2.029c2.354,0,4.447,1.096,5.809,2.802c3.686-1.127,7.48-1.993,11.376-2.5
	c1.863-0.242,3.715-0.382,5.559-0.456c0.37-1.064,0.968-2.023,1.746-2.807c-2.027-4.639-4.412-9.035-7.158-13.179
	c-0.824,0.314-1.714,0.495-2.648,0.495c-1.827,0-3.497-0.662-4.791-1.754c-7.158,3.86-13.753,8.591-19.782,14.181
	C37.936,55.36,38.214,56.435,38.235,57.574"/>
<path id="path3452" inkscape:connector-curvature="0" fill="#00B092" d="M39.911,65.054c0-0.32,0.027-0.635,0.067-0.947
	c-1.109-0.625-2.231-1.208-3.363-1.76c-1.363,1.704-3.456,2.799-5.807,2.799c-1.03,0-2.012-0.21-2.904-0.588
	c-1.244,1.512-2.467,3.057-3.65,4.66c-0.642,0.871-1.261,1.744-1.868,2.619h7.085c3.312-2.178,6.811-4.231,10.475-6.074
	C39.924,65.529,39.911,65.294,39.911,65.054"/>
<path id="path3454" inkscape:connector-curvature="0" fill="#00B092" d="M72.916,89.914V71.837h4.501
	c-0.352-1.539-0.73-3.057-1.145-4.553c-2.834-0.316-5.18-2.228-6.134-4.814c-1.647,0.068-3.3,0.194-4.963,0.41
	c-3.547,0.461-7.019,1.249-10.402,2.283c-0.015,1.014-0.23,1.977-0.611,2.853C60.949,73.828,67.207,81.135,72.916,89.914"/>
<path id="path3456" inkscape:connector-curvature="0" fill="#00B092" d="M50.741,71.663c-1.019,0.524-2.171,0.826-3.396,0.826
	c-2.045,0-3.896-0.826-5.239-2.162c-1.929,0.979-3.813,2.02-5.648,3.112v33.779h36.458v-7.691
	C66.328,87.928,58.923,78.625,50.741,71.663"/>
<path id="path3458" inkscape:connector-curvature="0" fill="#00B092" d="M55.505,22.882c1.461,1.382,2.95,2.894,4.443,4.526
	c0.661-0.192,1.358-0.301,2.081-0.301c2.439,0,4.599,1.181,5.954,2.997c1.604-0.601,3.253-1.165,4.932-1.706V0H36.458v9.019
	C42.108,12.108,48.838,16.576,55.505,22.882"/>
<path id="path3460" inkscape:connector-curvature="0" fill="#00B092" d="M83.564,63.576c-0.604,1.061-1.461,1.953-2.488,2.604
	c0.509,1.833,0.98,3.718,1.41,5.657h20.91C96.985,67.766,90.362,65.007,83.564,63.576"/>
<path id="path3462" inkscape:connector-curvature="0" fill="#00B092" d="M25.066,52.991c1.363-1.657,3.429-2.712,5.742-2.712
	c1.111,0,2.162,0.25,3.109,0.687c5.847-5.382,12.75-10.484,20.848-14.855c-0.109-0.506-0.169-1.03-0.169-1.569
	c0-1.548,0.475-2.986,1.285-4.176c-1.228-1.314-2.492-2.602-3.811-3.85c-5.364-5.073-10.813-8.899-15.612-11.724v20.589H0v16.824
	C7.159,51.066,15.768,50.85,25.066,52.991"/>
<path id="path3464" inkscape:connector-curvature="0" fill="#00B092" d="M72.916,35.379v-1.936c-1.164,0.391-2.318,0.8-3.458,1.228
	c-0.022,1.313-0.388,2.542-1.008,3.604c2.794,4.196,5.44,8.93,7.776,14.247c0.29-0.034,0.583-0.056,0.881-0.056
	c3.674,0,6.717,2.667,7.319,6.168c8.616,1.782,16.952,5.523,24.948,11.196V35.379H72.916"/>
<path id="path3466" inkscape:connector-curvature="0" fill="#706D6E" d="M175.107,35.243l-9.353,23.925h18.815L175.107,35.243
	L175.107,35.243z M168.584,12.84h14.027l33.496,76.996h-19.14l-6.633-16.312h-29.908l-6.417,16.312h-18.704L168.584,12.84"/>
<path id="path3468" inkscape:connector-curvature="0" fill="#706D6E" d="M224.48,12.84h16.965v61.335h31.428v15.66H224.48V12.84"/>
<path id="path3470" inkscape:connector-curvature="0" fill="#706D6E" d="M280.377,36.982h16.312v52.854h-16.312V36.982z
	 M279.071,20.344c0-2.611,0.925-4.84,2.774-6.688c1.848-1.849,4.076-2.773,6.688-2.773c2.609,0,4.84,0.925,6.688,2.773
	c1.85,1.849,2.773,4.078,2.773,6.688c0,2.61-0.924,4.839-2.773,6.688c-1.848,1.849-4.078,2.773-6.688,2.773
	c-2.611,0-4.84-0.925-6.688-2.773C279.996,25.183,279.071,22.954,279.071,20.344"/>
<path id="path3472" inkscape:connector-curvature="0" fill="#706D6E" d="M311.152,12.84h52.309V28.5h-35.344v14.355h33.387v15.659
	h-33.387v15.661h37.302v15.66h-54.267V12.84"/>
<path id="path3474" inkscape:connector-curvature="0" fill="#706D6E" d="M379.012,12.84h25.664l17.727,50.242h0.218l17.835-50.242
	h25.557v76.996h-16.966V30.784h-0.217l-20.228,59.052H415.66l-19.467-59.052h-0.217v59.052h-16.965V12.84"/>
<g>
	<path fill="#706D6E" d="M529,20.901c-8.958,0-16.01,2.866-21.154,8.599c-5.147,5.733-7.721,13.583-7.721,23.549
		c0,10.193,2.426,18.109,7.279,23.744s11.791,8.453,20.813,8.453c5.992,0,11.497-0.766,16.513-2.297v4.396
		c-4.722,1.662-10.618,2.492-17.686,2.492c-10.032,0-17.93-3.242-23.695-9.723c-5.765-6.482-8.647-15.537-8.647-27.165
		c0-7.263,1.376-13.663,4.129-19.2c2.751-5.537,6.709-9.812,11.872-12.824c5.161-3.012,11.163-4.52,18.003-4.52
		c6.97,0,13.207,1.303,18.712,3.908l-2.003,4.495C540.204,22.204,534.732,20.901,529,20.901z"/>
	<path fill="#706D6E" d="M591.681,88.859l-1.221-8.402h-0.392c-2.67,3.42-5.415,5.838-8.231,7.256
		c-2.817,1.416-6.147,2.125-9.991,2.125c-5.211,0-9.267-1.336-12.165-4.008c-2.899-2.67-4.349-6.367-4.349-11.09
		c0-5.178,2.158-9.201,6.474-12.066c4.316-2.867,10.562-4.381,18.737-4.543l10.112-0.295v-3.518c0-5.047-1.026-8.859-3.077-11.431
		c-2.053-2.573-5.358-3.86-9.918-3.86c-4.919,0-10.016,1.368-15.293,4.104l-1.808-4.202c5.831-2.736,11.596-4.103,17.296-4.103
		c5.829,0,10.186,1.514,13.068,4.543c2.883,3.029,4.324,7.752,4.324,14.167v35.323H591.681z M572.139,85.439
		c5.668,0,10.138-1.619,13.412-4.861c3.271-3.24,4.909-7.742,4.909-13.508v-5.227l-9.282,0.391
		c-7.459,0.357-12.776,1.523-15.951,3.492c-3.177,1.971-4.764,5.041-4.764,9.209c0,3.322,1.018,5.904,3.053,7.744
		S568.427,85.439,572.139,85.439z"/>
	<path fill="#706D6E" d="M633.354,34.727c2.248,0,4.658,0.229,7.231,0.684l-0.928,4.642c-2.217-0.553-4.512-0.83-6.889-0.83
		c-4.528,0-8.241,1.922-11.141,5.765c-2.898,3.844-4.348,8.696-4.348,14.559v29.312h-4.836V35.753h4.103l0.489,9.576h0.343
		c2.182-3.909,4.51-6.652,6.985-8.232C626.84,35.517,629.837,34.727,633.354,34.727z"/>
	<path fill="#706D6E" d="M670.827,34.727c3.844,0,7.165,0.701,9.967,2.101c2.801,1.4,5.309,3.795,7.522,7.181h0.294
		c-0.195-4.102-0.294-8.125-0.294-12.066V12.84h4.789v76.019h-3.176l-1.222-8.109h-0.392c-4.038,6.059-9.836,9.088-17.391,9.088
		c-7.329,0-12.932-2.281-16.807-6.84c-3.877-4.561-5.814-11.205-5.814-19.934c0-9.185,1.921-16.204,5.765-21.058
		C657.912,37.154,663.499,34.727,670.827,34.727z M670.827,39.125c-5.798,0-10.155,2.035-13.068,6.106
		c-2.916,4.072-4.373,9.983-4.373,17.735c0,15.047,5.847,22.57,17.54,22.57c5.991,0,10.389-1.742,13.19-5.227
		c2.801-3.484,4.2-9.234,4.2-17.246v-0.83c0-8.208-1.376-14.111-4.127-17.71C681.437,40.924,676.982,39.125,670.827,39.125z"/>
	<path fill="#706D6E" d="M743.867,75.033c0,4.756-1.808,8.412-5.424,10.969c-3.614,2.557-8.744,3.836-15.389,3.836
		c-7.102,0-12.735-1.092-16.904-3.273v-5.229c5.342,2.672,10.976,4.006,16.904,4.006c5.243,0,9.226-0.869,11.944-2.613
		c2.72-1.742,4.081-4.062,4.081-6.961c0-2.672-1.084-4.918-3.25-6.744c-2.167-1.822-5.725-3.613-10.676-5.373
		c-5.308-1.922-9.037-3.574-11.188-4.959c-2.149-1.383-3.77-2.947-4.86-4.69c-1.092-1.742-1.637-3.867-1.637-6.376
		c0-3.974,1.669-7.116,5.008-9.429c3.337-2.313,8.004-3.469,13.997-3.469c5.732,0,11.171,1.074,16.316,3.225l-1.807,4.396
		c-5.212-2.149-10.049-3.224-14.51-3.224c-4.333,0-7.769,0.716-10.31,2.148c-2.54,1.434-3.81,3.421-3.81,5.961
		c0,2.77,0.984,4.982,2.955,6.645c1.971,1.662,5.822,3.517,11.555,5.57c4.788,1.727,8.272,3.281,10.454,4.666
		c2.183,1.385,3.818,2.955,4.911,4.715C743.321,70.587,743.867,72.656,743.867,75.033z"/>
</g>
</svg>
