<?xml version="1.0" encoding="UTF-8"?>
<!DOCTYPE svg PUBLIC "-//W3C//DTD SVG 1.1//EN" "http://www.w3.org/Graphics/SVG/1.1/DTD/svg11.dtd">
<svg version="1.1" xmlns="http://www.w3.org/2000/svg" xmlns:xlink="http://www.w3.org/1999/xlink" x="0" y="0" width="85.714" height="30" viewBox="0, 0, 85.714, 30">
  <g id="creative-commons-icon">
    <path d="M2.435,0.318 L83.402,0.463 C84.533,0.463 85.544,0.295 85.544,2.72 L85.445,29.383 L0.392,29.383 L0.392,2.621 C0.392,1.425 0.507,0.318 2.435,0.318 z" fill="#AAB2AB" id="path3817_4_"/>
    <path d="M84.11,0 L1.605,0 C0.72,0 0,0.72 0,1.605 L0,29.638 C0,29.838 0.162,30 0.363,30 L85.352,30 C85.552,30 85.714,29.838 85.714,29.638 L85.714,1.605 C85.714,0.72 84.994,0 84.11,0 z M1.605,0.725 L84.11,0.725 C84.595,0.725 84.989,1.12 84.989,1.605 C84.989,1.605 84.989,12.884 84.989,21.044 L26.021,21.044 C23.859,24.951 19.695,27.605 14.916,27.605 C10.135,27.605 5.972,24.954 3.812,21.044 L0.725,21.044 C0.725,12.884 0.725,1.605 0.725,1.605 C0.725,1.12 1.12,0.725 1.605,0.725 z" fill="#000000" id="path364"/>
    <g id="g5908_4_">
      <path d="M24.659,13.961 C24.663,19.339 20.305,23.701 14.926,23.705 C9.547,23.708 5.184,19.35 5.181,13.972 C5.181,13.968 5.181,13.964 5.181,13.961 C5.177,8.582 9.536,4.22 14.914,4.217 C20.293,4.214 24.656,8.571 24.659,13.949 C24.659,13.952 24.659,13.957 24.659,13.961 z" fill="#FFFFFF" id="path5906_4_"/>
      <path d="M22.838,6.029 C24.997,8.188 26.077,10.833 26.077,13.961 C26.077,17.089 25.016,19.705 22.893,21.809 C20.64,24.025 17.978,25.133 14.906,25.133 C11.871,25.133 9.255,24.034 7.059,21.837 C4.861,19.64 3.763,17.015 3.763,13.961 C3.763,10.907 4.861,8.263 7.059,6.029 C9.199,3.868 11.816,2.789 14.906,2.789 C18.034,2.789 20.677,3.868 22.838,6.029 z M8.512,7.481 C6.687,9.325 5.774,11.485 5.774,13.963 C5.774,16.441 6.678,18.582 8.484,20.389 C10.292,22.196 12.443,23.099 14.939,23.099 C17.435,23.099 19.605,22.187 21.45,20.361 C23.201,18.666 24.076,16.534 24.076,13.963 C24.076,11.412 23.186,9.246 21.407,7.467 C19.628,5.689 17.472,4.799 14.939,4.799 C12.406,4.799 10.263,5.693 8.512,7.481 z M13.317,12.874 C13.038,12.265 12.621,11.961 12.064,11.961 C11.079,11.961 10.587,12.624 10.587,13.949 C10.587,15.275 11.079,15.937 12.064,15.937 C12.714,15.937 13.178,15.614 13.457,14.968 L14.822,15.695 C14.171,16.85 13.195,17.429 11.894,17.429 C10.89,17.429 10.086,17.121 9.482,16.506 C8.878,15.89 8.576,15.042 8.576,13.961 C8.576,12.898 8.888,12.054 9.51,11.429 C10.133,10.805 10.909,10.493 11.838,10.493 C13.214,10.493 14.199,11.034 14.795,12.117 L13.317,12.874 z M19.739,12.874 C19.46,12.265 19.05,11.961 18.511,11.961 C17.506,11.961 17.004,12.624 17.004,13.949 C17.004,15.275 17.506,15.937 18.511,15.937 C19.162,15.937 19.618,15.614 19.878,14.968 L21.274,15.695 C20.624,16.85 19.649,17.429 18.35,17.429 C17.348,17.429 16.546,17.121 15.942,16.506 C15.34,15.89 15.038,15.042 15.038,13.961 C15.038,12.898 15.344,12.054 15.957,11.429 C16.569,10.805 17.348,10.493 18.295,10.493 C19.668,10.493 20.652,11.034 21.245,12.117 L19.739,12.874 z" fill="#000000" id="path5708_4_"/>
    </g>
    <g id="g370">
      <path d="M34.352,23.391 C34.578,23.391 34.784,23.411 34.97,23.451 C35.156,23.49 35.314,23.555 35.448,23.646 C35.58,23.736 35.683,23.857 35.756,24.007 C35.829,24.157 35.866,24.342 35.866,24.563 C35.866,24.802 35.811,25 35.703,25.158 C35.594,25.318 35.434,25.448 35.222,25.549 C35.514,25.633 35.732,25.78 35.877,25.99 C36.021,26.2 36.093,26.453 36.093,26.749 C36.093,26.988 36.046,27.194 35.954,27.369 C35.861,27.543 35.735,27.686 35.579,27.796 C35.421,27.907 35.242,27.989 35.041,28.041 C34.839,28.095 34.632,28.121 34.42,28.121 L32.122,28.121 L32.122,23.391 L34.352,23.391 L34.352,23.391 z M34.22,25.304 C34.405,25.304 34.558,25.26 34.677,25.172 C34.797,25.084 34.856,24.941 34.856,24.743 C34.856,24.632 34.836,24.542 34.797,24.472 C34.756,24.401 34.704,24.346 34.637,24.306 C34.571,24.266 34.494,24.239 34.408,24.223 C34.322,24.208 34.232,24.201 34.139,24.201 L33.165,24.201 L33.165,25.304 L34.22,25.304 z M34.28,27.311 C34.382,27.311 34.479,27.302 34.572,27.282 C34.665,27.261 34.747,27.228 34.818,27.182 C34.889,27.136 34.945,27.073 34.987,26.993 C35.03,26.914 35.05,26.812 35.05,26.689 C35.05,26.446 34.982,26.273 34.844,26.169 C34.707,26.066 34.526,26.014 34.3,26.014 L33.165,26.014 L33.165,27.311 L34.28,27.311 z" fill="#FFFFFF" id="path372"/>
      <path d="M36.277,23.391 L37.443,23.391 L38.551,25.259 L39.652,23.391 L40.812,23.391 L39.056,26.306 L39.056,28.121 L38.013,28.121 L38.013,26.279 L36.277,23.391 z" fill="#FFFFFF" id="path374"/>
    </g>
    <g id="g376">
      <path d="M51.798,23.391 L53.774,26.564 L53.785,26.564 L53.785,23.391 L54.761,23.391 L54.761,28.121 L53.721,28.121 L51.752,24.954 L51.739,24.954 L51.739,28.121 L50.763,28.121 L50.763,23.391 L51.798,23.391 z" fill="#FFFFFF" id="path378"/>
      <path d="M58.711,24.651 C58.649,24.551 58.571,24.464 58.478,24.389 C58.386,24.314 58.281,24.255 58.164,24.214 C58.047,24.171 57.924,24.151 57.796,24.151 C57.562,24.151 57.363,24.196 57.199,24.287 C57.036,24.377 56.903,24.498 56.802,24.65 C56.7,24.803 56.626,24.976 56.58,25.17 C56.533,25.364 56.51,25.565 56.51,25.773 C56.51,25.972 56.533,26.165 56.58,26.352 C56.626,26.54 56.7,26.709 56.802,26.859 C56.903,27.009 57.036,27.129 57.199,27.22 C57.363,27.311 57.562,27.356 57.796,27.356 C58.114,27.356 58.363,27.259 58.542,27.064 C58.72,26.87 58.83,26.613 58.869,26.295 L59.877,26.295 C59.85,26.591 59.782,26.859 59.671,27.097 C59.561,27.336 59.415,27.539 59.234,27.708 C59.053,27.876 58.841,28.004 58.598,28.093 C58.355,28.182 58.087,28.226 57.796,28.226 C57.434,28.226 57.108,28.163 56.818,28.037 C56.529,27.912 56.284,27.738 56.086,27.517 C55.886,27.296 55.733,27.036 55.627,26.738 C55.521,26.439 55.468,26.118 55.468,25.773 C55.468,25.42 55.521,25.092 55.627,24.789 C55.733,24.486 55.886,24.222 56.086,23.997 C56.284,23.772 56.529,23.595 56.818,23.467 C57.108,23.338 57.434,23.275 57.796,23.275 C58.057,23.275 58.303,23.312 58.535,23.388 C58.767,23.462 58.975,23.572 59.158,23.716 C59.341,23.86 59.493,24.038 59.612,24.25 C59.731,24.462 59.806,24.705 59.837,24.979 L58.83,24.979 C58.813,24.86 58.772,24.75 58.711,24.651 z" fill="#FFFFFF" id="path380"/>
    </g>
    <g id="g382">
      <path d="M70.254,23.391 L72.23,26.564 L72.241,26.564 L72.241,23.391 L73.217,23.391 L73.217,28.121 L72.177,28.121 L70.208,24.954 L70.195,24.954 L70.195,28.121 L69.219,28.121 L69.219,23.391 L70.254,23.391 z" fill="#FFFFFF" id="path384"/>
      <path d="M76.172,23.391 C76.477,23.391 76.761,23.44 77.024,23.537 C77.288,23.634 77.515,23.78 77.708,23.974 C77.9,24.168 78.05,24.411 78.158,24.702 C78.267,24.994 78.321,25.337 78.321,25.73 C78.321,26.074 78.277,26.392 78.189,26.683 C78.1,26.975 77.966,27.227 77.788,27.438 C77.608,27.65 77.385,27.817 77.117,27.939 C76.85,28.06 76.535,28.121 76.172,28.121 L74.129,28.121 L74.129,23.391 L76.172,23.391 L76.172,23.391 z M76.099,27.245 C76.249,27.245 76.395,27.221 76.536,27.172 C76.678,27.124 76.804,27.043 76.914,26.93 C77.024,26.818 77.113,26.672 77.18,26.491 C77.245,26.31 77.279,26.089 77.279,25.829 C77.279,25.59 77.256,25.375 77.209,25.183 C77.163,24.991 77.087,24.827 76.981,24.691 C76.875,24.554 76.735,24.449 76.56,24.376 C76.385,24.303 76.17,24.267 75.914,24.267 L75.171,24.267 L75.171,27.245 L76.099,27.245 L76.099,27.245 z" fill="#FFFFFF" id="path386"/>
    </g>
    <g id="g7610_1_">
      <path d="M62.715,10.701 C62.719,14.63 59.536,17.817 55.606,17.82 C51.677,17.822 48.489,14.64 48.487,10.711 C48.487,10.707 48.487,10.704 48.487,10.701 C48.484,6.772 51.667,3.585 55.596,3.582 C59.525,3.579 62.713,6.762 62.715,10.69 C62.715,10.694 62.715,10.697 62.715,10.701 z" fill="#FFFFFF" id="path6372_1_"/>
      <path d="M55.59,2.419 C57.913,2.419 59.875,3.219 61.479,4.82 C63.082,6.422 63.884,8.382 63.884,10.701 C63.884,13.019 63.096,14.959 61.52,16.519 C59.847,18.162 57.87,18.983 55.59,18.983 C53.338,18.983 51.395,18.168 49.764,16.539 C48.133,14.911 47.318,12.965 47.318,10.701 C47.318,8.437 48.133,6.476 49.764,4.82 C51.354,3.219 53.296,2.419 55.59,2.419 z M49.181,8.476 C48.934,9.175 48.81,9.916 48.81,10.701 C48.81,12.537 49.481,14.124 50.822,15.463 C52.163,16.801 53.759,17.471 55.611,17.471 C57.463,17.471 59.073,16.795 60.442,15.442 C60.9,14.999 61.278,14.517 61.574,13.993 L58.451,12.603 C58.239,13.654 57.303,14.363 56.171,14.446 L56.171,15.723 L55.22,15.723 L55.22,14.446 C54.291,14.436 53.393,14.056 52.706,13.455 L53.847,12.304 C54.396,12.822 54.946,13.053 55.696,13.053 C56.182,13.053 56.72,12.863 56.72,12.23 C56.72,12.006 56.634,11.85 56.497,11.733 L55.707,11.382 L54.724,10.943 C54.237,10.727 53.825,10.544 53.412,10.36 L49.181,8.476 z M55.611,3.909 C53.731,3.909 52.142,4.572 50.842,5.897 C50.489,6.254 50.181,6.627 49.92,7.016 L53.086,8.426 C53.372,7.547 54.207,7.014 55.22,6.955 L55.22,5.678 L56.171,5.678 L56.171,6.955 C56.827,6.987 57.545,7.166 58.252,7.715 L57.164,8.833 C56.763,8.548 56.256,8.348 55.749,8.348 C55.337,8.348 54.755,8.474 54.755,8.992 C54.755,9.07 54.782,9.14 54.83,9.202 L55.889,9.673 L56.606,9.992 C57.064,10.197 57.502,10.391 57.936,10.584 L62.18,12.474 C62.32,11.918 62.391,11.327 62.391,10.701 C62.391,8.81 61.727,7.208 60.401,5.897 C59.087,4.572 57.491,3.909 55.611,3.909 z" fill="#000000" id="path6374_1_"/>
    </g>
    <g id="g6394_1_">
      <path d="M81.906,10.701 C81.909,14.876 78.527,18.263 74.351,18.266 C70.176,18.269 66.788,14.887 66.785,10.711 C66.785,10.708 66.785,10.704 66.785,10.701 C66.782,6.526 70.164,3.138 74.34,3.135 C78.515,3.132 81.903,6.514 81.906,10.689 C81.906,10.694 81.906,10.697 81.906,10.701 z" fill="#FFFFFF" id="path6396_1_"/>
      <g id="g6398_1_">
        <path d="M74.227,2.419 C71.933,2.419 69.99,3.219 68.401,4.82 C66.77,6.476 65.955,8.436 65.955,10.701 C65.955,12.965 66.77,14.911 68.401,16.539 C70.031,18.168 71.974,18.983 74.227,18.983 C76.508,18.983 78.484,18.161 80.157,16.519 C81.732,14.959 82.521,13.019 82.521,10.701 C82.521,8.381 81.719,6.421 80.115,4.82 C78.512,3.219 76.549,2.419 74.227,2.419 z M74.247,3.909 C76.127,3.909 77.724,4.572 79.037,5.897 C80.364,7.208 81.027,8.809 81.027,10.701 C81.027,12.606 80.378,14.186 79.079,15.442 C77.71,16.795 76.1,17.47 74.247,17.47 C72.395,17.47 70.799,16.801 69.458,15.462 C68.117,14.124 67.447,12.536 67.447,10.701 C67.447,8.864 68.124,7.263 69.48,5.897 C70.779,4.572 72.367,3.909 74.247,3.909 z" fill="#000000" id="path6400_1_"/>
        <path d="M77.367,8.738 L71.346,8.738 L71.346,10.164 L77.367,10.164 L77.367,8.738 z M77.367,11.4 L71.346,11.4 L71.346,12.825 L77.367,12.825 L77.367,11.4 z" fill="#000000" id="path6404_1_"/>
      </g>
    </g>
    <g id="g398">
      <path d="M44.645,10.869 C44.645,15.105 41.211,18.539 36.974,18.539 C32.738,18.539 29.304,15.105 29.304,10.869 C29.304,6.633 32.738,3.199 36.974,3.199 C41.211,3.199 44.645,6.633 44.645,10.869 z" fill="#FFFFFF" id="circle400"/>
      <g id="g402">
        <path d="M39.194,8.65 C39.194,8.354 38.954,8.115 38.659,8.115 L35.271,8.115 C34.976,8.115 34.736,8.354 34.736,8.65 L34.736,12.038 L35.681,12.038 L35.681,16.049 L38.249,16.049 L38.249,12.038 L39.194,12.038 L39.194,8.65 L39.194,8.65 z" fill="#000000" id="path404"/>
        <path d="M38.124,6.51 C38.124,7.15 37.605,7.669 36.965,7.669 C36.325,7.669 35.807,7.15 35.807,6.51 C35.807,5.87 36.325,5.352 36.965,5.352 C37.605,5.352 38.124,5.87 38.124,6.51 z" fill="#000000" id="circle406"/>
      </g>
      <path d="M36.955,2.419 C34.661,2.419 32.718,3.219 31.129,4.82 C29.498,6.476 28.683,8.437 28.683,10.7 C28.683,12.964 29.498,14.911 31.129,16.539 C32.76,18.168 34.702,18.982 36.955,18.982 C39.235,18.982 41.212,18.161 42.885,16.518 C44.461,14.959 45.248,13.019 45.248,10.7 C45.248,8.381 44.447,6.421 42.843,4.82 C41.24,3.219 39.277,2.419 36.955,2.419 z M36.976,3.909 C38.856,3.909 40.452,4.572 41.765,5.897 C43.092,7.208 43.756,8.809 43.756,10.7 C43.756,12.605 43.106,14.186 41.806,15.442 C40.438,16.795 38.828,17.471 36.976,17.471 C35.123,17.471 33.527,16.801 32.186,15.463 C30.845,14.124 30.175,12.536 30.175,10.7 C30.175,8.864 30.852,7.263 32.207,5.897 C33.507,4.572 35.096,3.909 36.976,3.909 z" fill="#000000" id="path408"/>
    </g>
  </g>
</svg>
