<?xml version="1.0" standalone="no"?>
<!DOCTYPE svg PUBLIC "-//W3C//DTD SVG 20010904//EN"
 "http://www.w3.org/TR/2001/REC-SVG-20010904/DTD/svg10.dtd">
<svg version="1.0" xmlns="http://www.w3.org/2000/svg"
 width="872.000000pt" height="872.000000pt" viewBox="0 0 872.000000 872.000000"
 preserveAspectRatio="xMidYMid meet">
<metadata>
Created by potrace 1.11, written by Peter Selinger 2001-2013
</metadata>
<g transform="translate(0.000000,872.000000) scale(0.100000,-0.100000)"
fill="#000000" stroke="none">
<path d="M2908 8623 c-3 -7 -2 -623 1 -695 0 -16 5 -28 10 -28 21 0 432 -245
439 -262 2 -4 8 -8 13 -8 8 0 222 -141 269 -177 73 -57 150 -113 154 -113 2 0
15 -9 28 -20 12 -11 59 -48 103 -83 85 -66 100 -79 174 -141 25 -22 54 -47 65
-55 66 -56 196 -172 299 -271 85 -81 109 -105 256 -259 l61 -64 47 10 c86 20
237 10 318 -21 82 -32 159 -82 224 -148 l54 -54 66 23 c36 12 73 26 81 29 8 4
20 8 25 10 15 3 107 34 125 41 8 4 18 7 23 8 4 2 8 3 10 4 1 2 13 5 26 7 14 2
27 7 30 9 6 6 8 2234 3 2253 -3 9 -303 12 -1452 12 -797 0 -1450 -3 -1452 -7z"/>
<path d="M2909 7432 c-1 -9 -2 -377 -2 -817 l-2 -800 -145 -2 c-80 -1 -733 -2
-1452 -2 l-1308 -1 0 -670 0 -670 27 5 c16 3 48 8 73 11 25 2 61 7 80 11 19 3
53 7 75 9 22 2 60 6 85 8 222 27 729 27 995 2 106 -11 161 -17 175 -21 8 -2
35 -7 60 -10 66 -7 122 -15 145 -19 11 -2 38 -7 60 -11 22 -4 54 -11 70 -15
17 -5 46 -11 65 -13 19 -3 47 -8 61 -12 22 -5 32 0 60 30 30 32 158 125 172
125 3 0 18 5 34 12 127 52 291 55 412 9 51 -19 51 -19 78 2 16 12 33 26 39 32
28 26 153 136 184 161 19 16 37 31 40 34 9 10 126 105 160 130 19 14 48 37 64
51 17 14 76 59 131 100 55 40 105 77 110 82 6 5 55 39 110 77 55 38 106 74
113 80 6 6 12 8 12 5 0 -3 10 3 22 15 12 11 26 20 32 20 5 0 17 7 27 16 10 9
64 45 121 80 57 35 108 67 114 72 6 5 20 13 32 16 12 4 22 12 22 17 0 5 4 9 8
9 5 0 73 37 152 83 132 75 167 106 141 122 -11 6 -2 220 9 220 1 0 3 11 6 25
2 14 20 58 40 98 35 72 35 74 17 95 -57 68 -372 373 -479 464 -12 10 -46 39
-75 64 -30 26 -79 66 -109 90 -30 23 -61 48 -70 55 -26 22 -104 84 -115 92 -6
4 -37 27 -70 51 -33 25 -77 57 -97 73 -20 15 -42 28 -48 28 -6 0 -13 7 -16 15
-4 8 -10 15 -15 15 -4 0 -51 29 -103 65 -52 36 -99 65 -105 65 -6 0 -11 5 -11
10 0 6 -7 10 -15 10 -8 0 -15 5 -15 10 0 6 -5 10 -11 10 -6 0 -23 8 -37 19
-15 10 -51 33 -79 50 -45 26 -53 28 -54 13z"/>
<path d="M5760 5951 c0 -4 -21 -13 -47 -20 -27 -8 -55 -18 -63 -22 -22 -11
-52 -21 -75 -26 -30 -6 -38 -18 -42 -70 -5 -49 -28 -127 -57 -196 -16 -37 -16
-39 9 -80 14 -23 31 -51 38 -62 7 -11 15 -22 18 -25 6 -5 37 -55 137 -223 21
-35 55 -95 86 -152 6 -11 13 -22 16 -25 7 -7 235 -461 235 -469 1 -3 14 -34
30 -68 l30 -63 75 -1 c41 0 82 -2 90 -4 8 -2 24 -6 35 -9 11 -3 36 -9 55 -14
102 -25 251 -141 319 -249 34 -54 83 -181 75 -194 -6 -10 24 -26 59 -34 55
-11 82 -17 162 -36 22 -6 54 -13 70 -16 17 -3 35 -9 40 -13 6 -4 51 -18 100
-31 50 -12 93 -28 97 -33 4 -6 8 -8 8 -4 0 4 12 3 28 -3 15 -6 74 -28 132 -48
58 -21 121 -45 140 -54 19 -9 64 -28 100 -42 177 -73 454 -213 633 -322 48
-29 90 -53 93 -53 3 0 10 -5 17 -10 7 -6 46 -32 87 -58 42 -26 82 -53 90 -60
8 -7 42 -30 75 -51 l60 -38 3 1365 c1 751 1 1367 -1 1369 -2 2 -656 4 -1453 6
l-1449 2 -1 70 c-1 69 -1 70 -27 71 -15 1 -27 -2 -27 -5z"/>
<path d="M4515 5399 c-64 -34 -115 -63 -198 -113 -43 -25 -83 -46 -88 -46 -5
0 -9 -4 -9 -9 0 -5 -14 -14 -31 -21 -17 -7 -36 -18 -42 -24 -7 -6 -48 -34 -92
-61 -44 -27 -84 -53 -90 -57 -5 -5 -65 -46 -132 -92 -125 -86 -250 -177 -313
-228 -19 -16 -40 -32 -45 -36 -18 -13 -160 -126 -165 -131 -3 -4 -32 -28 -65
-56 -60 -50 -128 -110 -172 -153 -12 -13 -23 -20 -23 -16 0 8 -60 -59 -60 -67
0 -4 9 -26 19 -50 20 -46 30 -89 35 -150 3 -45 12 -59 36 -59 10 0 20 -3 22
-7 2 -5 62 -38 135 -75 l131 -67 39 29 c56 43 56 44 88 61 39 21 151 58 191
62 17 2 36 7 43 11 6 4 11 4 11 -1 0 -4 31 -8 68 -9 67 -1 147 -17 187 -38 11
-5 25 -11 31 -12 24 -4 121 -73 165 -117 30 -30 52 -44 65 -42 10 2 19 4 19 5
0 1 9 3 20 5 26 5 59 13 63 15 1 2 7 4 12 5 6 1 11 3 13 4 1 2 13 4 27 7 14 2
32 7 40 11 8 3 22 7 30 9 9 2 45 10 80 19 36 9 74 18 85 20 11 3 38 9 60 14
22 5 54 12 70 15 17 2 41 7 55 11 39 8 100 19 175 30 23 3 50 7 60 9 44 8 116
17 171 22 85 8 119 12 119 13 0 1 47 4 104 6 110 5 141 10 141 26 0 12 40 102
49 109 3 3 17 21 30 40 14 19 30 38 37 43 14 8 6 29 -82 212 -26 55 -48 102
-49 105 0 3 -6 14 -12 25 -6 11 -36 69 -68 129 -31 60 -65 122 -76 138 -11 15
-17 28 -13 28 4 0 0 8 -8 18 -8 9 -26 37 -39 62 -13 25 -63 108 -111 184 -48
77 -89 144 -91 149 -3 9 -26 5 -122 -18 -39 -10 -164 -7 -221 5 -70 15 -149
48 -210 90 -25 16 -48 30 -52 30 -4 0 -25 -10 -47 -21z"/>
<path d="M647 4134 c-1 -1 -45 -5 -97 -7 -52 -3 -97 -6 -100 -7 -3 -1 -9 -2
-15 -1 -5 2 -45 -2 -90 -8 -166 -21 -191 -24 -220 -27 -16 -1 -30 -3 -30 -4 0
-2 -64 -12 -82 -13 -10 0 -13 -123 -13 -579 l0 -578 90 0 c50 0 290 0 535 0
245 0 498 0 563 0 l118 0 109 163 c61 89 120 173 132 187 13 14 23 28 23 31 0
4 19 31 43 61 23 30 51 67 62 82 39 53 102 134 116 149 8 8 25 30 39 48 14 18
42 53 63 78 23 29 35 52 31 61 -28 64 -52 153 -58 220 -5 44 -6 46 -23 46 -10
1 -31 4 -48 8 -16 3 -41 8 -55 11 -14 2 -36 7 -50 10 -50 10 -96 17 -130 21
-56 5 -123 14 -150 19 -35 6 -132 16 -215 21 -74 5 -544 12 -548 8z"/>
<path d="M2862 3606 c-46 -46 -212 -149 -212 -131 0 3 -9 1 -19 -5 -59 -31
-253 -32 -347 -2 l-62 19 -38 -50 c-21 -27 -43 -55 -49 -61 -6 -6 -59 -74
-117 -151 -59 -77 -113 -148 -122 -157 -9 -10 -13 -18 -10 -18 3 0 -1 -7 -8
-15 -30 -33 -38 -45 -38 -55 0 -5 -4 -10 -8 -10 -10 0 -45 -60 -35 -60 4 -1
131 -1 281 0 l273 0 132 82 c73 45 134 85 137 89 3 3 10 8 15 10 6 2 92 51
192 108 100 56 185 102 189 101 4 -1 10 2 13 7 3 4 40 25 81 46 l75 38 0 64
c0 36 -5 69 -10 74 -14 12 -215 117 -240 124 -15 4 -33 -8 -73 -47z"/>
<path d="M5557 3654 c-1 -1 -47 -5 -102 -8 -55 -4 -111 -8 -125 -11 -14 -2
-56 -7 -94 -10 -38 -3 -72 -7 -75 -9 -3 -2 -31 -7 -61 -10 -30 -4 -68 -9 -85
-12 -16 -3 -41 -7 -55 -9 -14 -2 -25 -5 -25 -6 0 -1 -9 -3 -20 -5 -11 -1 -31
-5 -45 -8 -14 -3 -38 -8 -55 -11 -64 -13 -83 -17 -229 -56 -83 -22 -158 -41
-166 -44 -8 -2 -16 -4 -17 -5 -3 -3 -18 -7 -31 -9 -4 0 -8 -18 -9 -38 0 -21
-3 -49 -6 -63 -3 -14 -8 -36 -11 -50 -3 -14 -11 -35 -18 -48 -11 -21 -7 -27
48 -80 33 -31 82 -77 109 -100 121 -106 383 -372 510 -517 33 -38 69 -79 80
-91 12 -12 35 -40 53 -61 72 -87 149 -181 174 -213 15 -19 53 -69 85 -110 53
-68 196 -262 233 -316 8 -12 32 -48 54 -80 21 -33 41 -61 45 -64 3 -3 15 -22
26 -42 11 -21 23 -38 27 -38 3 0 9 -9 13 -19 3 -11 11 -21 18 -24 9 -3 12 151
11 697 0 385 1 706 3 713 4 9 52 12 175 12 94 1 173 3 175 4 2 2 -4 33 -12 68
-9 35 -18 73 -20 84 -28 123 -53 198 -68 207 -10 5 -17 6 -17 2 0 -3 -7 -1
-15 6 -8 7 -15 10 -15 7 0 -3 -23 1 -51 9 -153 46 -289 167 -363 325 -14 29
-37 45 -49 33z"/>
<path d="M6647 3541 c-20 -33 -97 -126 -97 -117 0 4 -11 -5 -25 -20 -14 -15
-25 -24 -25 -20 0 4 -7 0 -16 -8 -17 -17 -15 -52 6 -116 6 -19 13 -44 15 -55
7 -31 44 -187 52 -215 4 -14 8 -36 9 -49 2 -13 5 -25 7 -28 4 -3 1329 -6 1630
-3 25 0 27 2 13 15 -8 8 -18 15 -23 15 -5 0 -32 16 -60 35 -29 19 -57 35 -62
35 -5 0 -11 3 -13 8 -5 12 -423 227 -508 261 -19 8 -53 22 -75 32 -52 23 -284
110 -307 114 -10 2 -23 7 -28 10 -10 6 -121 40 -160 50 -8 2 -35 10 -60 19
-25 8 -65 18 -90 22 -25 4 -51 11 -57 17 -7 5 -13 7 -13 4 0 -3 -22 1 -49 8
-47 12 -48 12 -64 -14z"/>
<path d="M3295 2995 c-33 -17 -78 -41 -100 -53 -22 -12 -45 -22 -52 -22 -7 0
-13 -4 -13 -8 0 -9 -37 -29 -54 -30 -5 0 -12 -4 -15 -9 -3 -5 -36 -26 -73 -46
-37 -21 -70 -43 -74 -49 -9 -14 -12 -2665 -3 -2679 3 -5 594 -8 1454 -7 l1449
3 0 305 -1 305 -41 69 c-23 37 -42 72 -42 77 0 5 -4 9 -9 9 -5 0 -13 10 -17
22 -4 13 -15 34 -24 48 -29 43 -54 85 -55 91 0 3 -8 17 -17 30 -10 13 -39 58
-65 99 -26 41 -51 77 -55 78 -4 2 -8 8 -8 13 0 10 -67 116 -87 137 -6 6 -15
21 -18 32 -3 11 -11 20 -16 20 -5 0 -9 6 -9 14 0 8 -4 16 -8 18 -4 2 -39 48
-77 103 -38 55 -73 105 -77 110 -9 11 -50 64 -88 115 -14 18 -31 39 -37 46 -7
7 -13 17 -13 22 0 6 -4 12 -8 14 -4 2 -28 30 -54 63 -25 33 -56 71 -68 85 -12
14 -39 45 -59 70 -20 25 -38 47 -41 50 -3 3 -18 21 -34 40 -136 166 -562 595
-703 709 -39 31 -42 32 -69 18 -75 -38 -238 -58 -338 -43 -83 13 -214 71 -267
119 -51 47 -50 46 -114 12z"/>
</g>
</svg>
