<?xml version="1.0" encoding="UTF-8" standalone="no"?>
<!-- Created with Inkscape (http://www.inkscape.org/) -->

<svg
   xmlns:dc="http://purl.org/dc/elements/1.1/"
   xmlns:cc="http://creativecommons.org/ns#"
   xmlns:rdf="http://www.w3.org/1999/02/22-rdf-syntax-ns#"
   xmlns:svg="http://www.w3.org/2000/svg"
   xmlns="http://www.w3.org/2000/svg"
   xmlns:sodipodi="http://sodipodi.sourceforge.net/DTD/sodipodi-0.dtd"
   xmlns:inkscape="http://www.inkscape.org/namespaces/inkscape"
   id="svg3436"
   version="1.1"
   inkscape:version="0.91 r13725"
   xml:space="preserve"
   width="466.01126"
   height="107.21775"
   viewBox="0 0 466.01126 107.21775"
   sodipodi:docname="aliem-logo-horizontal.svg"><metadata
     id="metadata3442"><rdf:RDF><cc:Work
         rdf:about=""><dc:format>image/svg+xml</dc:format><dc:type
           rdf:resource="http://purl.org/dc/dcmitype/StillImage" /><dc:title></dc:title></cc:Work></rdf:RDF></metadata><defs
     id="defs3440" /><sodipodi:namedview
     pagecolor="#ffffff"
     bordercolor="#666666"
     borderopacity="1"
     objecttolerance="10"
     gridtolerance="10"
     guidetolerance="10"
     inkscape:pageopacity="0"
     inkscape:pageshadow="2"
     inkscape:window-width="1920"
     inkscape:window-height="1042"
     id="namedview3438"
     showgrid="false"
     inkscape:zoom="1.4142136"
     inkscape:cx="385.96027"
     inkscape:cy="-9.5801189"
     inkscape:window-x="0"
     inkscape:window-y="38"
     inkscape:window-maximized="0"
     inkscape:current-layer="g3446"
     fit-margin-top="0"
     fit-margin-left="0"
     fit-margin-right="0"
     fit-margin-bottom="0" /><g
     id="g3444"
     inkscape:groupmode="layer"
     inkscape:label="ink_ext_XXXXXX"
     transform="matrix(1.25,0,0,-1.25,0,107.21775)"><g
       id="g3446"
       transform="scale(0.1,0.1)"><path
         d="m 161.836,327.742 c 9.941,13.481 20.644,27.082 31.977,40.688 -4.305,8.203 -6.778,17.515 -6.809,27.41 C 117.617,410.945 53.1367,408.281 0,399.18 l 0,-116.133 130.891,0 c 9.722,14.902 19.976,29.824 30.945,44.695"
         style="fill:#00b092;fill-opacity:1;fill-rule:nonzero;stroke:none"
         id="path3448"
         inkscape:connector-curvature="0" /><path
         d="m 305.879,397.148 c 10.844,-5.144 21.559,-10.675 32.133,-16.601 10.648,10.039 24.957,16.23 40.75,16.23 18.828,0 35.574,-8.769 46.472,-22.414 29.485,9.016 59.84,15.95 91.012,20 14.906,1.938 29.723,3.059 44.469,3.653 2.957,8.515 7.742,16.183 13.969,22.445 -16.215,37.117 -35.297,72.281 -57.262,105.437 -6.594,-2.515 -13.711,-3.957 -21.184,-3.957 -14.613,0 -27.976,5.293 -38.328,14.036 -57.265,-30.879 -110.023,-68.731 -158.254,-113.45 3.828,-7.664 6.059,-16.265 6.223,-25.379"
         style="fill:#00b092;fill-opacity:1;fill-rule:nonzero;stroke:none"
         id="path3450"
         inkscape:connector-curvature="0" /><path
         d="m 319.285,337.305 c 0,2.566 0.219,5.086 0.539,7.578 -8.871,5 -17.847,9.668 -26.902,14.082 -10.902,-13.633 -27.645,-22.395 -46.457,-22.395 -8.242,0 -16.094,1.684 -23.235,4.707 -9.953,-12.097 -19.734,-24.453 -29.203,-37.285 -5.136,-6.961 -10.089,-13.953 -14.941,-20.945 l 56.684,0 c 26.496,17.422 54.488,33.848 83.8,48.594 -0.175,1.867 -0.285,3.75 -0.285,5.664"
         style="fill:#00b092;fill-opacity:1;fill-rule:nonzero;stroke:none"
         id="path3452"
         inkscape:connector-curvature="0" /><path
         d="m 583.328,138.43 0,144.617 36.008,0 c -2.813,12.305 -5.844,24.453 -9.16,36.418 -22.676,2.527 -41.438,17.82 -49.071,38.512 -13.175,-0.547 -26.398,-1.551 -39.703,-3.282 -28.375,-3.687 -56.148,-9.988 -83.214,-18.261 -0.118,-8.106 -1.84,-15.809 -4.887,-22.821 C 487.59,267.117 537.656,208.66 583.328,138.43"
         style="fill:#00b092;fill-opacity:1;fill-rule:nonzero;stroke:none"
         id="path3454"
         inkscape:connector-curvature="0" /><path
         d="m 405.93,284.441 c -8.153,-4.199 -17.371,-6.609 -27.168,-6.609 -16.36,0 -31.164,6.609 -41.914,17.297 -15.43,-7.832 -30.508,-16.156 -45.188,-24.895 l 0,-270.234 291.668,0 0,61.5313 C 530.625,154.316 471.383,228.738 405.93,284.441"
         style="fill:#00b092;fill-opacity:1;fill-rule:nonzero;stroke:none"
         id="path3456"
         inkscape:connector-curvature="0" /><path
         d="m 444.043,674.688 c 11.687,-11.055 23.598,-23.149 35.547,-36.208 5.289,1.54 10.863,2.411 16.648,2.411 19.516,0 36.789,-9.45 47.633,-23.977 12.828,4.805 26.024,9.316 39.457,13.649 l 0,227.179 -291.668,0 0,-72.148 c 45.203,-24.715 99.047,-60.461 152.383,-110.906"
         style="fill:#00b092;fill-opacity:1;fill-rule:nonzero;stroke:none"
         id="path3458"
         inkscape:connector-curvature="0" /><path
         d="m 668.512,349.133 c -4.836,-8.481 -11.688,-15.625 -19.907,-20.832 4.071,-14.66 7.84,-29.738 11.278,-45.254 l 167.281,0 c -51.285,32.566 -104.269,54.637 -158.652,66.086"
         style="fill:#00b092;fill-opacity:1;fill-rule:nonzero;stroke:none"
         id="path3460"
         inkscape:connector-curvature="0" /><path
         d="m 200.531,433.816 c 10.907,13.254 27.43,21.7 45.934,21.7 8.89,0 17.297,-2 24.875,-5.496 46.773,43.054 102,83.871 166.785,118.843 -0.875,4.047 -1.355,8.242 -1.355,12.555 0,12.387 3.796,23.887 10.277,33.41 -9.824,10.516 -19.938,20.817 -30.488,30.797 -42.911,40.586 -86.508,71.191 -124.899,93.793 l 0,-164.711 -291.66,0 0,-134.59 c 57.2695,9.094 126.145,10.828 200.531,-6.301"
         style="fill:#00b092;fill-opacity:1;fill-rule:nonzero;stroke:none"
         id="path3462"
         inkscape:connector-curvature="0" /><path
         d="m 583.328,574.707 0,15.484 c -9.312,-3.125 -18.543,-6.402 -27.668,-9.824 -0.18,-10.508 -3.101,-20.332 -8.062,-28.836 22.351,-33.566 43.519,-71.441 62.211,-113.972 2.316,0.273 4.66,0.449 7.046,0.449 29.395,0 53.735,-21.336 58.551,-49.348 68.93,-14.258 135.617,-44.187 199.582,-89.566 l 0,275.613 -291.66,0"
         style="fill:#00b092;fill-opacity:1;fill-rule:nonzero;stroke:none"
         id="path3464"
         inkscape:connector-curvature="0" /><path
         d="m 1400.86,575.801 -74.82,-191.399 150.52,0 -75.7,191.399 z m -52.19,179.222 112.22,0 267.97,-615.96 -153.12,0 -53.07,130.496 -239.26,0 -51.33,-130.496 -149.63,0 266.22,615.96"
         style="fill:#706d6e;fill-opacity:1;fill-rule:nonzero;stroke:none"
         id="path3466"
         inkscape:connector-curvature="0" /><path
         d="m 1795.84,755.023 135.72,0 0,-490.687 251.43,0 0,-125.273 -387.15,0 0,615.96"
         style="fill:#706d6e;fill-opacity:1;fill-rule:nonzero;stroke:none"
         id="path3468"
         inkscape:connector-curvature="0" /><path
         d="m 2243.01,561.887 130.5,0 0,-422.824 -130.5,0 0,422.824 z m -10.44,133.101 c 0,20.887 7.4,38.719 22.19,53.508 14.79,14.789 32.62,22.188 53.5,22.188 20.88,0 38.72,-7.399 53.51,-22.188 14.79,-14.789 22.18,-32.621 22.18,-53.508 0,-20.879 -7.39,-38.711 -22.18,-53.5 -14.79,-14.789 -32.63,-22.187 -53.51,-22.187 -20.88,0 -38.71,7.398 -53.5,22.187 -14.79,14.789 -22.19,32.621 -22.19,53.5"
         style="fill:#706d6e;fill-opacity:1;fill-rule:nonzero;stroke:none"
         id="path3470"
         inkscape:connector-curvature="0" /><path
         d="m 2489.22,755.023 418.47,0 0,-125.281 -282.75,0 0,-114.84 267.09,0 0,-125.273 -267.09,0 0,-125.293 298.41,0 0,-125.273 -434.13,0 0,615.96"
         style="fill:#706d6e;fill-opacity:1;fill-rule:nonzero;stroke:none"
         id="path3472"
         inkscape:connector-curvature="0" /><path
         d="m 3032.09,755.023 205.32,0 141.81,-401.937 1.74,0 142.68,401.937 204.45,0 0,-615.96 -135.72,0 0,472.41 -1.74,0 -161.82,-472.41 -103.53,0 -155.73,472.41 -1.74,0 0,-472.41 -135.72,0 0,615.96"
         style="fill:#706d6e;fill-opacity:1;fill-rule:nonzero;stroke:none"
         id="path3474"
         inkscape:connector-curvature="0" /></g></g></svg>